<svg width="398" height="120" viewBox="0 0 398 120" fill="none" xmlns="http://www.w3.org/2000/svg">
<path d="M384.417 87.217C384.928 85.2897 385.184 83.677 385.184 82.379C385.184 81.081 384.83 80.019 384.122 79.193C383.414 78.3277 382.489 77.895 381.349 77.895C380.247 77.895 379.323 78.4457 378.576 79.547C377.828 80.6483 377.455 81.907 377.455 83.323C377.455 86.0763 379.028 88.4363 382.175 90.403C385.321 92.4483 387.465 93.9233 388.606 94.828C389.746 95.7327 390.553 96.5587 391.025 97.306C392.205 99.2333 392.795 101.22 392.795 103.265C392.795 106.805 391.595 109.637 389.196 111.761C386.836 113.846 384.161 114.888 381.172 114.888C377.632 114.888 374.662 113.393 372.263 110.404C370.532 108.241 368.939 105.546 367.484 102.321L373.207 99.548C374.111 101.908 375.232 103.914 376.57 105.566C377.946 107.179 379.402 107.985 380.936 107.985C381.919 107.985 382.804 107.67 383.591 107.041C384.377 106.412 384.771 105.468 384.771 104.209C384.771 102.911 384.279 101.711 383.296 100.61C382.312 99.5087 380.995 98.3877 379.343 97.247C377.691 96.1063 376.412 95.182 375.508 94.474C374.603 93.7267 373.6 92.7827 372.499 91.642C370.414 89.4393 369.372 86.627 369.372 83.205C369.372 79.7437 370.571 76.8527 372.971 74.532C375.37 72.172 378.222 70.992 381.526 70.992C384.83 70.992 387.603 72.2703 389.845 74.827C392.126 77.3837 393.267 80.019 393.267 82.733C393.267 85.4077 392.755 87.7087 391.733 89.636L384.417 87.217Z" fill="black"/>
<path d="M364.006 71.464L364.065 98.899C364.065 103.422 363.908 108.28 363.593 113.472L356.985 112.823C351.911 101.298 347.761 92.6647 344.536 86.922C344.575 92.7433 344.595 102.026 344.595 114.77L337.692 114.003C337.574 111.564 337.515 109.204 337.515 106.923C337.515 97.4043 338.046 86.3123 339.108 73.647L346.955 74.414C350.849 85.152 354.35 93.3137 357.457 98.899C357.221 87.0203 356.946 77.659 356.631 70.815L364.006 71.464Z" fill="black"/>
<path d="M324.768 89.577C324.925 88.7903 325.004 87.512 325.004 85.742C325.004 83.9327 324.709 82.2807 324.119 80.786C323.529 79.252 322.664 78.485 321.523 78.485C320.146 78.485 318.809 80.2747 317.511 83.854C316.213 87.394 315.564 91.2093 315.564 95.3C315.564 99.3513 315.957 102.537 316.744 104.858C317.531 107.139 318.691 108.28 320.225 108.28C321.759 108.28 322.919 107.572 323.706 106.156C324.493 104.74 325.083 102.655 325.476 99.902C324.06 99.902 322.546 100.04 320.933 100.315L319.694 94.474C323.273 94.238 327.757 93.8053 333.146 93.176C333.382 95.2213 333.5 97.0897 333.5 98.781C333.5 100.472 332.989 102.577 331.966 105.094C330.983 107.611 329.488 109.834 327.482 111.761C325.515 113.688 323.352 114.652 320.992 114.652C316.901 114.652 313.617 113.059 311.139 109.873C308.7 106.687 307.481 102.183 307.481 96.362C307.481 92.0747 308.012 88.0627 309.074 84.326C310.136 80.5893 311.709 77.5213 313.794 75.122C315.879 72.7227 318.258 71.523 320.933 71.523C323.529 71.523 325.968 72.467 328.249 74.355C329.429 75.3383 330.373 76.7543 331.081 78.603C331.828 80.4123 332.202 82.32 332.202 84.326C332.202 86.332 332.025 88.279 331.671 90.167L324.768 89.577Z" fill="black"/>
<path d="M301.813 72.172C301.459 78.3867 301.282 85.388 301.282 93.176C301.282 100.964 301.538 108.064 302.049 114.475L294.084 113.767C293.573 105.743 293.317 98.5057 293.317 92.055C293.317 85.565 293.494 78.7013 293.848 71.464L301.813 72.172Z" fill="black"/>
<path d="M277.882 87.217C278.394 85.2897 278.649 83.677 278.649 82.379C278.649 81.081 278.295 80.019 277.587 79.193C276.879 78.3277 275.955 77.895 274.814 77.895C273.713 77.895 272.789 78.4457 272.041 79.547C271.294 80.6483 270.92 81.907 270.92 83.323C270.92 86.0763 272.494 88.4363 275.64 90.403C278.787 92.4483 280.931 93.9233 282.071 94.828C283.212 95.7327 284.018 96.5587 284.49 97.306C285.67 99.2333 286.26 101.22 286.26 103.265C286.26 106.805 285.061 109.637 282.661 111.761C280.301 113.846 277.627 114.888 274.637 114.888C271.097 114.888 268.128 113.393 265.728 110.404C263.998 108.241 262.405 105.546 260.949 102.321L266.672 99.548C267.577 101.908 268.698 103.914 270.035 105.566C271.412 107.179 272.867 107.985 274.401 107.985C275.385 107.985 276.27 107.67 277.056 107.041C277.843 106.412 278.236 105.468 278.236 104.209C278.236 102.911 277.745 101.711 276.761 100.61C275.778 99.5087 274.46 98.3877 272.808 97.247C271.156 96.1063 269.878 95.182 268.973 94.474C268.069 93.7267 267.066 92.7827 265.964 91.642C263.88 89.4393 262.837 86.627 262.837 83.205C262.837 79.7437 264.037 76.8527 266.436 74.532C268.836 72.172 271.687 70.992 274.991 70.992C278.295 70.992 281.068 72.2703 283.31 74.827C285.592 77.3837 286.732 80.019 286.732 82.733C286.732 85.4077 286.221 87.7087 285.198 89.636L277.882 87.217Z" fill="black"/>
<path d="M231.514 113.118C231.121 106.156 230.924 100.099 230.924 94.946C230.924 89.754 231.042 84.3457 231.278 78.721L224.08 79.724L222.782 72.88C226.637 72.2113 230.452 71.7197 234.228 71.405L245.261 70.815L246.382 77.364C244.219 77.482 241.78 77.659 239.066 77.895C238.83 83.559 238.712 88.751 238.712 93.471C238.712 98.191 238.791 104.956 238.948 113.767L231.514 113.118Z" fill="black"/>
<path d="M212.775 87.217C213.286 85.2897 213.542 83.677 213.542 82.379C213.542 81.081 213.188 80.019 212.48 79.193C211.772 78.3277 210.848 77.895 209.707 77.895C208.606 77.895 207.681 78.4457 206.934 79.547C206.187 80.6483 205.813 81.907 205.813 83.323C205.813 86.0763 207.386 88.4363 210.533 90.403C213.68 92.4483 215.823 93.9233 216.964 94.828C218.105 95.7327 218.911 96.5587 219.383 97.306C220.563 99.2333 221.153 101.22 221.153 103.265C221.153 106.805 219.953 109.637 217.554 111.761C215.194 113.846 212.519 114.888 209.53 114.888C205.99 114.888 203.02 113.393 200.621 110.404C198.89 108.241 197.297 105.546 195.842 102.321L201.565 99.548C202.47 101.908 203.591 103.914 204.928 105.566C206.305 107.179 207.76 107.985 209.294 107.985C210.277 107.985 211.162 107.67 211.949 107.041C212.736 106.412 213.129 105.468 213.129 104.209C213.129 102.911 212.637 101.711 211.654 100.61C210.671 99.5087 209.353 98.3877 207.701 97.247C206.049 96.1063 204.771 95.182 203.866 94.474C202.961 93.7267 201.958 92.7827 200.857 91.642C198.772 89.4393 197.73 86.627 197.73 83.205C197.73 79.7437 198.93 76.8527 201.329 74.532C203.728 72.172 206.58 70.992 209.884 70.992C213.188 70.992 215.961 72.2703 218.203 74.827C220.484 77.3837 221.625 80.019 221.625 82.733C221.625 85.4077 221.114 87.7087 220.091 89.636L212.775 87.217Z" fill="black"/>
<path d="M179.529 115.006C175.793 115.006 172.626 113.334 170.03 109.991C167.474 106.608 166.195 101.495 166.195 94.651C166.195 87.7677 167.592 82.1627 170.384 77.836C173.216 73.5093 176.54 71.346 180.355 71.346C184.171 71.346 187.337 73.0373 189.854 76.42C192.411 79.8027 193.689 84.8963 193.689 91.701C193.689 98.5057 192.273 104.091 189.441 108.457C186.609 112.823 183.305 115.006 179.529 115.006ZM180.414 78.367C178.684 78.367 177.189 79.901 175.93 82.969C174.672 85.9977 174.042 89.8327 174.042 94.474C174.042 99.076 174.573 102.498 175.635 104.74C176.737 106.943 178.094 108.044 179.706 108.044C181.319 108.044 182.735 106.51 183.954 103.442C185.213 100.374 185.842 96.539 185.842 91.937C185.842 87.2957 185.311 83.8737 184.249 81.671C183.227 79.4683 181.948 78.367 180.414 78.367Z" fill="black"/>
<path d="M144.244 83.441L144.303 90.226L153.153 89.695C153.153 83.559 153.251 77.0493 153.448 70.166L161.236 70.874C160.882 77.128 160.705 83.913 160.705 91.229C160.705 98.5057 160.921 105.822 161.354 113.177L153.802 112.528C153.448 109.145 153.231 103.717 153.153 96.244L144.48 96.775C144.598 102.36 144.775 108.044 145.011 113.826L136.987 113.118C136.554 104.819 136.338 97.188 136.338 90.226C136.338 83.264 136.495 77.246 136.81 72.172L144.598 72.88C144.362 76.3807 144.244 79.901 144.244 83.441Z" fill="black"/>
<path d="M122.647 89.577C122.804 88.7903 122.883 87.512 122.883 85.742C122.883 83.9327 122.588 82.2807 121.998 80.786C121.408 79.252 120.543 78.485 119.402 78.485C118.025 78.485 116.688 80.2747 115.39 83.854C114.092 87.394 113.443 91.2093 113.443 95.3C113.443 99.3513 113.836 102.537 114.623 104.858C115.41 107.139 116.57 108.28 118.104 108.28C119.638 108.28 120.798 107.572 121.585 106.156C122.372 104.74 122.962 102.655 123.355 99.902C121.939 99.902 120.425 100.04 118.812 100.315L117.573 94.474C121.152 94.238 125.636 93.8053 131.025 93.176C131.261 95.2213 131.379 97.0897 131.379 98.781C131.379 100.472 130.868 102.577 129.845 105.094C128.862 107.611 127.367 109.834 125.361 111.761C123.394 113.688 121.231 114.652 118.871 114.652C114.78 114.652 111.496 113.059 109.018 109.873C106.579 106.687 105.36 102.183 105.36 96.362C105.36 92.0747 105.891 88.0627 106.953 84.326C108.015 80.5893 109.588 77.5213 111.673 75.122C113.758 72.7227 116.137 71.523 118.812 71.523C121.408 71.523 123.847 72.467 126.128 74.355C127.308 75.3383 128.252 76.7543 128.96 78.603C129.707 80.4123 130.081 82.32 130.081 84.326C130.081 86.332 129.904 88.279 129.55 90.167L122.647 89.577Z" fill="black"/>
<path d="M392.728 5.79201L392.805 41.597C392.805 47.5003 392.599 53.84 392.189 60.616L383.565 59.769C376.943 44.7283 371.527 33.4607 367.318 25.966C367.369 33.5633 367.395 45.678 367.395 62.31L358.386 61.309C358.232 58.1263 358.155 55.0463 358.155 52.069C358.155 39.6463 358.848 25.1703 360.234 8.641L370.475 9.64201C375.557 23.656 380.125 34.3077 384.181 41.597C383.873 26.0943 383.513 13.877 383.103 4.94501L392.728 5.79201Z" fill="black"/>
<path d="M334.093 62.618C329.217 62.618 325.084 60.4363 321.696 56.073C318.36 51.6583 316.691 44.985 316.691 36.053C316.691 27.0697 318.514 19.7547 322.158 14.108C325.854 8.46133 330.192 5.638 335.171 5.638C340.151 5.638 344.283 7.84533 347.568 12.26C350.905 16.6747 352.573 23.3223 352.573 32.203C352.573 41.0837 350.725 48.373 347.029 54.071C343.333 59.769 339.021 62.618 334.093 62.618ZM335.248 14.801C332.99 14.801 331.039 16.803 329.396 20.807C327.754 24.7597 326.932 29.7647 326.932 35.822C326.932 41.828 327.625 46.294 329.011 49.22C330.449 52.0947 332.22 53.532 334.324 53.532C336.429 53.532 338.277 51.53 339.868 47.526C341.511 43.522 342.332 38.517 342.332 32.511C342.332 26.4537 341.639 21.9877 340.253 19.113C338.919 16.2383 337.25 14.801 335.248 14.801Z" fill="black"/>
<path d="M293.749 6.02301C299.755 6.02301 304.375 8.38434 307.609 13.107C310.894 17.8297 312.537 23.5533 312.537 30.278C312.537 35.4627 311.715 40.365 310.073 44.985C308.43 49.5537 305.863 53.4037 302.373 56.535C298.882 59.615 294.801 61.155 290.13 61.155C289.206 61.155 285.715 60.7957 279.658 60.077C280.377 49.0404 280.736 39.903 280.736 32.665C280.736 25.427 280.505 17.419 280.043 8.64101C285.022 6.89568 289.591 6.02301 293.749 6.02301ZM292.055 51.761C294.416 51.761 296.752 49.682 299.062 45.524C301.423 41.3147 302.604 36.7973 302.604 31.972C302.604 27.0953 301.757 23.0913 300.063 19.96C298.42 16.8287 296.444 15.263 294.134 15.263C292.902 15.263 291.747 15.4683 290.669 15.879C290.874 23.4763 290.977 29.8673 290.977 35.052C290.977 40.1853 290.823 45.5497 290.515 51.145C290.874 51.5557 291.388 51.761 292.055 51.761Z" fill="black"/>
<path d="M246.758 60.308C246.553 52.1973 246.45 44.523 246.45 37.285C246.45 30.047 246.861 20.6273 247.682 9.02598C256.46 7.69132 265.033 7.02399 273.4 7.02399V16.495C267.6 16.495 262.21 16.6747 257.23 17.034C257.025 22.7833 256.897 27.198 256.845 30.278C260.747 29.7133 265.367 29.3797 270.705 29.277L272.168 37.747C268.729 37.7983 263.57 38.1833 256.691 38.902C256.691 45.062 256.717 49.5023 256.768 52.223C261.234 51.8637 266.573 51.0937 272.784 49.913L274.093 58.383C269.73 60.385 264.571 61.386 258.616 61.386L246.758 60.308Z" fill="black"/>
<path d="M206.055 7.63998L215.988 8.56398C217.939 21.346 220.377 33.6403 223.303 45.447L223.611 45.37C227.205 31.5613 230.105 18.0606 232.312 4.86798L242.476 5.71498C239.037 23.3736 233.929 41.6226 227.153 60.462L218.298 59.692C213.062 41.1607 208.981 23.81 206.055 7.63998Z" fill="black"/>
<path d="M175.774 60.308C175.569 52.1973 175.466 44.523 175.466 37.285C175.466 30.047 175.877 20.6273 176.698 9.02598C185.476 7.69132 194.049 7.02399 202.416 7.02399V16.495C196.615 16.495 191.225 16.6747 186.246 17.034C186.041 22.7833 185.912 27.198 185.861 30.278C189.762 29.7133 194.382 29.3797 199.721 29.277L201.184 37.747C197.745 37.7983 192.586 38.1833 185.707 38.902C185.707 45.062 185.733 49.5023 185.784 52.223C190.25 51.8637 195.589 51.0937 201.8 49.913L203.109 58.383C198.746 60.385 193.587 61.386 187.632 61.386L175.774 60.308Z" fill="black"/>
<path d="M146.691 59.538C146.024 48.9633 145.69 39.287 145.69 30.509C145.69 21.6797 145.973 13.6717 146.537 6.48499L156.778 7.40899C156.008 16.2383 155.623 24.6827 155.623 32.742C155.623 40.8013 155.752 46.7303 156.008 50.529C157.856 50.2723 162.399 49.759 169.637 48.989L171.177 57.921C167.327 58.383 161.886 59.153 154.853 60.231L146.691 59.538Z" fill="black"/>
<path d="M123.713 15.725C121.454 15.725 119.478 18.5227 117.784 24.118C116.09 29.662 115.243 34.59 115.243 38.902C115.243 47.9367 117.604 52.454 122.327 52.454C123.662 52.454 124.817 51.8894 125.792 50.76C126.819 49.5794 127.537 48.373 127.948 47.141C128.41 45.909 128.949 44.215 129.565 42.059L139.344 42.829C138.009 49.143 136.007 53.9684 133.338 57.305C130.72 60.6417 127.05 62.31 122.327 62.31C116.783 62.31 112.497 60.231 109.468 56.073C106.491 51.8637 105.002 46.525 105.002 40.057C105.002 32.511 106.491 25.1704 109.468 18.035C110.905 14.493 112.907 11.5927 115.474 9.33401C118.092 7.02402 121.069 5.86902 124.406 5.86902C128.513 5.86902 131.49 7.22935 133.338 9.95002C134.262 11.2847 135.006 12.645 135.571 14.031C136.187 15.417 136.623 17.188 136.88 19.344C137.342 22.7834 137.624 26.4794 137.727 30.432L127.794 29.508C127.794 22.886 127.178 18.728 125.946 17.034C125.381 16.1613 124.637 15.725 123.713 15.725Z" fill="black"/>
<path d="M5 36C5 30.4772 9.47715 26 15 26H83C88.5228 26 93 30.4772 93 36V104C93 109.523 88.5228 114 83 114H15C9.47715 114 5 109.523 5 104V36Z" fill="black"/>
<path d="M72.2055 67.3645C74.5234 72.1421 74.5631 76.9075 72.2942 78.0082C70.0254 79.1089 66.3072 76.1282 63.9893 71.3506C61.6715 66.573 61.6317 61.8077 63.9006 60.707C66.1694 59.6062 69.8877 62.5869 72.2055 67.3645Z" fill="white"/>
<path d="M25.8006 67.8582C23.4827 72.6358 23.443 77.4011 25.7119 78.5018C27.9807 79.6026 31.6989 76.6219 34.0168 71.8442C36.3346 67.0666 36.3744 62.3013 34.1055 61.2006C31.8367 60.0999 28.1184 63.0806 25.8006 67.8582Z" fill="white"/>
<g filter="url(#filter0_d_1_7)">
<path d="M70.0175 63.7564C70.0175 71.3276 60.9835 84.7666 54.8222 93.0516C51.7376 97.1996 46.8013 97.2072 43.7259 93.0524C37.5527 84.7127 28.4128 71.1912 28.4128 63.7564C28.4128 52.2676 37.7263 42.9541 49.2152 42.9541C60.704 42.9541 70.0175 52.2676 70.0175 63.7564Z" fill="white"/>
</g>
<path fill-rule="evenodd" clip-rule="evenodd" d="M47.5858 55.9918C45.7886 56.8055 45.0594 58.8358 45.7983 60.4676C46.5371 62.0995 48.5439 62.891 50.3411 62.0773C50.9111 61.8192 51.373 61.4378 51.7159 60.9855C52.55 59.8852 54.1181 59.6694 55.2184 60.5035C56.3187 61.3376 56.5345 62.9057 55.7004 64.006C54.8646 65.1086 53.7469 66.0239 52.4034 66.6322C48.1889 68.5404 43.1652 66.7746 41.2434 62.5299C39.3216 58.2853 41.309 53.3451 45.5235 51.4369C47.6103 50.4921 49.8857 50.4478 51.8843 51.1524C53.1865 51.6115 53.8699 53.0393 53.4109 54.3414C52.9518 55.6436 51.524 56.3271 50.2219 55.868C49.4052 55.5801 48.4658 55.5934 47.5858 55.9918Z" fill="black"/>
<path fill-rule="evenodd" clip-rule="evenodd" d="M5 10C5 7.79086 6.79086 6 9 6L89 5.99999C91.2091 5.99999 93 7.79085 93 9.99999C93 12.2091 91.2091 14 89 14L9 14C6.79086 14 5 12.2091 5 10Z" fill="black"/>
<path fill-rule="evenodd" clip-rule="evenodd" d="M19.9434 30.151L19.9434 11.8868L25.9434 11.8868L25.9434 30.151L19.9434 30.151Z" fill="black"/>
<path fill-rule="evenodd" clip-rule="evenodd" d="M73.0754 30.151L73.0754 11.8868L79.0754 11.8868L79.0754 30.151L73.0754 30.151Z" fill="black"/>
<defs>
<filter id="filter0_d_1_7" x="20.4128" y="39.9541" width="57.6047" height="69.2115" filterUnits="userSpaceOnUse" color-interpolation-filters="sRGB">
<feFlood flood-opacity="0" result="BackgroundImageFix"/>
<feColorMatrix in="SourceAlpha" type="matrix" values="0 0 0 0 0 0 0 0 0 0 0 0 0 0 0 0 0 0 127 0" result="hardAlpha"/>
<feOffset dy="5"/>
<feGaussianBlur stdDeviation="4"/>
<feComposite in2="hardAlpha" operator="out"/>
<feColorMatrix type="matrix" values="0 0 0 0 0 0 0 0 0 0 0 0 0 0 0 0 0 0 0.1 0"/>
<feBlend mode="normal" in2="BackgroundImageFix" result="effect1_dropShadow_1_7"/>
<feBlend mode="normal" in="SourceGraphic" in2="effect1_dropShadow_1_7" result="shape"/>
</filter>
</defs>
</svg>
